<svg viewBox="0 0 682 682" xmlns="http://www.w3.org/2000/svg">
  <rect width="682" height="682" fill="#a714fd"/>
  <path fill="#FFFFFF" d="m 155.33334,594.66668 c -0.45323,-0.73333 -2.88864,-1.33333 -5.41202,-1.33333 -15.5582,0 11.55615,-19.6951 38.74242,-28.1414 18.16451,-5.64339 22.60925,-8.13387 26.51405,-14.85635 1.81105,-3.11791 10.63738,-22.16892 19.61406,-42.33558 14.22777,-31.96355 16.42867,-37.86383 17.15876,-46.00001 0.91295,-10.17399 3.77644,-16.93009 8.41048,-19.8436 1.7698,-1.1127 8.09667,-2.11861 15.63892,-2.48643 9.16478,-0.44694 14.60192,-1.45365 19.66667,-3.64136 3.85,-1.66301 7,-3.47127 7,-4.01834 0,-1.16485 -8.04623,-2.64123 -14.50929,-2.66226 -5.26774,-0.0171 -12.29746,-3.99494 -15.38349,-8.70482 -2.72253,-4.15511 -5.24301,-4.34491 -4.11474,-0.30985 0.46137,1.65 -0.92325,0.3 -3.07692,-3 -2.15368,-3.3 -5.48155,-7.44596 -7.39526,-9.21325 -1.91371,-1.76728 -3.85544,-5.21728 -4.31495,-7.66666 -0.97331,-5.1882 -2.26439,-5.64896 -4.12771,-1.47311 -1.2358,2.76955 -1.39642,2.62549 -2.27112,-2.03705 -0.51769,-2.75956 -1.49336,-4.67616 -2.16814,-4.25912 -0.67478,0.41703 -1.59948,-0.72635 -2.0549,-2.54085 -0.53134,-2.11706 -1.5008,-3.04093 -2.70575,-2.57855 -1.33151,0.51095 -1.87774,-0.33583 -1.87774,-2.91094 0,-2.97505 -0.48203,-3.50544 -2.66666,-2.93414 -2.0892,0.54633 -2.66667,0.0409 -2.66667,-2.33398 0,-2.0539 -1.70111,-4.15707 -5.27573,-6.52264 -7.71404,-5.10491 -8.65403,-5.01119 -8.22209,0.81974 l 0.37158,5.01613 -4.66448,-2.75211 c -2.56547,-1.51366 -5.3466,-3.574 -6.18028,-4.57854 -1.09353,-1.31761 -3.50434,-1.62119 -8.65384,-1.08971 -9.33331,0.96328 -13.78988,-0.26679 -15.63453,-4.31534 -1.29648,-2.84548 -2.38492,-3.29655 -7.95465,-3.29655 -3.86219,0 -6.45265,-0.59771 -6.45265,-1.48884 0,-0.83241 -1.17575,-1.18138 -2.66666,-0.7915 -2.12109,0.55468 -2.66667,0.0409 -2.66667,-2.51116 0,-2.70098 -0.65559,-3.2085 -4.14455,-3.2085 -3.75505,0 -4.06592,-0.31326 -3.30793,-3.33334 0.68548,-2.73116 0.3503,-3.33333 -1.85545,-3.33333 -8.33044,0 5.87018,-13.49061 23.75966,-22.57171 7.2002,-3.65498 21.18917,-4.96484 30.86402,-2.88995 6.487,1.39121 26.85787,8.50124 35.04673,12.23233 2.7672,1.26083 4.32769,0.7251 11.62363,-3.9905 4.63503,-2.99576 8.95263,-5.44684 9.59467,-5.44684 0.64205,0 2.98511,-2.0703 5.2068,-4.60067 2.7797,-3.1659 7.31335,-5.86322 14.53742,-8.64912 19.72897,-7.60829 53.14172,-16.25581 70.08712,-18.13916 12.48118,-1.38719 50.02831,4.02444 69.38619,10.00055 l 8.13164,2.51038 8.76724,-3.06351 c 5.72503,-2.00049 11.38899,-5.31813 16.32275,-9.56099 9.67796,-8.32271 22.59677,-23.50853 26.0268,-30.59401 3.89216,-8.04013 5.83328,-26.45049 4.12623,-39.13485 -1.91437,-14.22489 -4.47927,-21.06952 -14.31461,-38.19963 -4.66236,-8.12039 -9.41982,-17.42039 -10.57214,-20.66667 -2.79357,-7.86996 -5.93527,-29.0882 -5.94502,-40.15119 -0.009,-10.56828 4.27853,-29.717633 7.42653,-33.196131 3.05299,-3.37352 10.63257,-5.667902 15.9002,-4.813084 5.68504,0.922556 15.45731,7.115626 16.29745,10.328335 0.36074,1.379452 1.6411,2.76381 2.84526,3.07636 1.20415,0.31254 5.05483,1.31472 8.55705,2.22706 7.18752,1.87236 8.57915,3.21223 6.25051,6.01807 -1.07432,1.29447 -4.20766,1.94159 -9.40121,1.94159 -6.42023,0 -8.04026,0.46795 -9.21424,2.66155 -0.78344,1.46386 -4.25455,4.01386 -7.71358,5.66667 -7.04086,3.36429 -12.28916,11.54144 -12.28916,19.14719 0,7.98732 5.43505,22.53212 17.38516,46.52459 15.2464,30.61049 16.38271,35.10494 15.64779,61.89189 -0.54532,19.87654 -0.77864,21.3427 -5.39641,33.90985 -5.30797,14.4455 -11.19576,25.03153 -23.45587,42.17273 l -8.08781,11.3078 3.75336,6.6922 c 5.76639,10.28141 9.49068,21.47431 9.45269,28.40889 -0.10468,19.10798 -19.38894,51.07733 -35.27188,58.47354 -7.33671,3.41649 -20.23578,4.28436 -24.46085,1.64577 -1.85489,-1.15841 -3.38507,-0.98672 -6.75986,0.75845 -2.97527,1.53858 -7.61233,2.25997 -14.58428,2.26892 -8.51372,0.0109 -11.22477,0.58525 -16.22205,3.43666 -3.3,1.88295 -6.17777,3.56352 -6.39504,3.73459 -0.21728,0.17107 -0.7317,5.66593 -1.14315,12.21079 -0.78972,12.56174 0.91851,27.60878 4.31205,37.98295 1.87789,5.74077 2.45328,6.29861 7.35022,7.12594 3.4524,0.58328 6.03329,1.99716 7.37026,4.03763 1.13158,1.72701 3.95828,3.75755 6.28154,4.6823 10.30989,3.34934 36.83563,8.20263 51.8441,9.48568 24.8997,2.12864 28.53553,3.69553 34.14519,14.71508 1.49527,2.93729 3.77917,4.88811 6.9015,5.89502 3.1565,1.01792 5.4058,2.95796 6.95071,5.99504 1.69019,3.32267 4.87629,5.84313 12.2541,9.69397 10.79321,5.6335 13.42045,8.51406 14.88487,16.32006 l 0.95031,5.06559 -4.45371,-0.89074 c -2.44954,-0.48991 -4.91523,-1.63171 -5.47931,-2.53733 -0.76773,-1.23259 -1.62543,-1.27521 -3.41126,-0.16952 -2.61871,1.62136 -12.09742,-0.49076 -15.72927,-3.50492 -1.54242,-1.2801 -2.86351,-1.18364 -6.33225,0.46239 -3.45742,1.64065 -5.64175,1.80318 -10.34202,0.76952 -6.87786,-1.68255 -9.29014,-4.05328 -9.29715,-9.79223 -0.006,-4.8144 -3.95384,-11.78733 -8.26469,-14.5972 -6.49797,-4.23546 -43.39977,-14.39133 -61.18835,-16.83985 -6.37046,-0.87686 -15.38946,-1.15452 -20.89434,-0.64326 -8.85688,0.82259 -10.18265,0.60833 -15.49317,-2.50384 -8.80229,-5.15849 -10.90929,-10.67367 -9.2172,-24.12651 1.23684,-9.83344 1.04406,-11.89809 -2.37741,-25.462 -2.04787,-8.11846 -4.72675,-17.26846 -5.95307,-20.33334 l -2.22967,-5.5725 H 339.2104 c -15.09737,0 -15.24368,0.0307 -31.99551,6.71392 -19.47682,7.7697 -25.67202,11.58072 -28.05804,17.25538 -1.21715,2.89475 -2.8977,4.31221 -5.80105,4.89288 -6.77149,1.35429 -6.72179,1.25857 -36.89937,71.07487 -8.38495,19.3987 -15.89131,36.04871 -16.68082,37 -0.92278,1.11188 -4.82961,1.7465 -10.93886,1.77687 -5.71162,0.0284 -10.83339,0.80753 -12.83674,1.95275 -2.02247,1.15614 -7.1523,1.92409 -13.04433,1.95275 -7.65192,0.0372 -11.10576,0.75404 -16.28901,3.38058 -7.07716,3.58627 -10.03082,4.10751 -11.33333,2 z"/>
</svg>