<svg xmlns="http://www.w3.org/2000/svg" viewBox="0 0 20 20">
  <path fill="url(#Birb)" stroke="black" stroke-width="0.2" d="M13.75 1.5a.75.75 0 1 0 0 1.5.75.75 0 0 0 0-1.5Zm-2.25.75a2.25 2.25 0 0 1 4.372-.75h1.378a.75.75 0 0 1 0 1.5h-1.378a2.25 2.25 0 0 1-.497.807c.507.35.9.762 1.18 1.224.543.892.614 1.876.43 2.763-.182.87-.53 1.423-.909 1.762-.035.032-.07.06-.105.088.02.22.016.447-.01.68-.065.771-.236 1.65-.998 2.444-.516.54-1.187.877-1.685 1.076a6.85 6.85 0 0 1-.597.207c-.092.167-.212.4-.326.673-.199.478-.356 1.023-.355 1.524.001.416.111 1.1.236 1.729.038.19.076.368.11.523h.904a.75.75 0 0 1 0 1.5H9.5a.75.75 0 0 1-.728-.57l.728-.18-.728.18-.001-.006-.005-.019-.017-.068a26.064 26.064 0 0 1-.234-1.067c-.124-.622-.264-1.438-.265-2.018-.001-.73.205-1.445.435-2.018a4.842 4.842 0 0 1-1.4-.534c-.434-.254-.87-.627-1.107-1.106H2.75a.75.75 0 0 1-.483-1.324l.919-.775a.75.75 0 0 1-.672-.746c0-1.323.995-2.236 2.107-2.793 1.141-.572 2.626-.897 4.106-.979 1.483-.082 3.034.074 4.317.526.901.316 1.749.81 2.302 1.534.061-.138.121-.318.17-.55.124-.596.063-1.176-.242-1.677-.302-.496-.9-1.01-2.029-1.367A2.25 2.25 0 0 1 11.5 2.25Zm-.605 12.086c-.21.015-.42.024-.626.027-.246.504-.52 1.22-.519 1.885.001.416.111 1.1.237 1.729.037.19.075.368.11.523h.715a25.394 25.394 0 0 1-.046-.23c-.124-.622-.264-1.438-.266-2.018-.001-.7.187-1.377.395-1.916Z"/>
  <linearGradient id="Birb" stroke="white" stroke-width="0.5" x1="0%" y1="0%" x2="100%" y2="100%">
    <stop offset="0%" stop-color="#4a0e4e"/>
    <stop offset="50%" stop-color="#800080"/>
    <stop offset="100%" stop-color="#c28ed1"/>
  </linearGradient>
</svg>