<svg viewBox="0 0 16.200996 20.203749" xmlns="http://www.w3.org/2000/svg">
  <path fill="url(#Birb)" stroke="#000000" stroke-width="0.2" d="m 11.850997,1.6037486 c -1,0 -1,1.5 0,1.5 1,0 1,-1.5 0,-1.5 z m -2.2499996,0.75 c -0.00217,-2.53137996 3.5303736,-3.13737392 4.3719996,-0.75 h 1.378 c 1,0 1,1.5 0,1.5 h -1.378 c -0.10649,0.3012364 -0.275915,0.5763387 -0.497,0.807 0.507,0.35 0.9,0.762 1.18,1.224 0.543,0.892 0.614,1.876 0.43,2.763 -0.174626,0.8347485 -0.512643,1.4489147 -1.014,1.85 0.02,0.22 0.016,0.4470004 -0.01,0.6800004 -0.065,0.771 -0.236,1.65 -0.998,2.444 -0.516,0.54 -1.187,0.877 -1.685,1.076 -0.19571,0.07815 -0.394922,0.14722 -0.597,0.207 -0.092,0.167 -0.212,0.4 -0.326,0.673 -0.199,0.478 -0.356,1.023 -0.355,1.524 0.001,0.416 0.111,1.1 0.236,1.729 0.038,0.19 0.076,0.368 0.11,0.523 h 0.904 c 1,0 1,1.5 0,1.5 H 7.6009974 c -0.3448517,-3.7e-5 -0.6452356,-0.235227 -0.728,-0.57 v 0 l -0.001,-0.006 c -0.018872,-0.07063 -0.1379277,-0.555981 -0.256,-1.154 -0.124,-0.622 -0.264,-1.438 -0.265,-2.018 -10e-4,-0.73 0.205,-1.445 0.435,-2.018 -0.491548,-0.104278 -0.9638688,-0.284435 -1.4,-0.534 -0.434,-0.254 -0.87,-0.627 -1.107,-1.106 H 0.85099736 c -0.69993198,2.56e-4 -1.01868136,-0.8735 -0.483,-1.324 l 0.91900004,-0.775 C 0.90503768,10.558809 0.61496284,10.236791 0.61499736,9.8527486 c 0,-1.323 0.99500004,-2.236 2.10700004,-2.793 1.141,-0.572 2.626,-0.897 4.106,-0.979 1.483,-0.082 3.034,0.074 4.3169996,0.526 0.901,0.316 1.749,0.81 2.302,1.534 0.07619,-0.17237 0.515869,-1.2613523 -0.072,-2.227 -0.302,-0.496 -0.9,-1.01 -2.029,-1.367 -1.021492,-0.2352708 -1.7451881,-1.1447644 -1.7449996,-2.193 z m -0.605,12.0860004 c -0.21,0.015 -0.42,0.024 -0.626,0.027 -0.246,0.504 -0.52,1.22 -0.519,1.885 0.001,0.416 0.111,1.1 0.237,1.729 0.037,0.19 0.075,0.368 0.11,0.523 h 0.715 c -0.218441,-1.066653 -0.3103454,-1.768167 -0.312,-2.248 -0.001,-0.7 0.187,-1.377 0.395,-1.916 z"/>
  <linearGradient id="Birb" stroke-width="0.5" x1="2.1206582" y1="-0.092904606" x2="20.212669" y2="17.999107" gradientTransform="matrix(0.89547794,0,0,1.1167221,-1.8990026,0.10374863)" gradientUnits="userSpaceOnUse">
    <stop offset="0%" stop-color="#4a0e4e" id="stop1"/>
    <stop offset="50%" stop-color="#800080" id="stop2"/>
    <stop offset="100%" stop-color="#c28ed1" id="stop3"/>
  </linearGradient>
</svg>